<svg xmlns="http://www.w3.org/2000/svg" viewBox="0 0 95.979 101.8">    <defs>        <style>            .cls-1{fill:url(#linear-gradient)}.cls-2{clip-path:url(#clip-path)}.cls-3{clip-path:url(#clip-path-2)}.cls-4{clip-path:url(#clip-path-3)}.cls-5{clip-path:url(#clip-path-4)}.cls-6{clip-path:url(#clip-path-5)}        </style>        <linearGradient id="linear-gradient" x1=".153" x2=".853" y1=".5" y2=".5" gradientUnits="objectBoundingBox">            <stop offset="0" stop-color="#eb008b"/>            <stop offset="1" stop-color="#682262"/>        </linearGradient>        <clipPath id="clip-path">            <path id="Path_137" d="M71 82.3h19.5v3H71zm29.5-29.1l6.2-4.1a36.428 36.428 0 0 1-31.2 54.5 35.562 35.562 0 0 1-23.4-8.8l13.8-12.4H68v4.5a1.417 1.417 0 0 0 1.5 1.5H92a1.417 1.417 0 0 0 1.5-1.5v-4.5H95a1.865 1.865 0 0 0 1.5-1.1l6-21.2a1.486 1.486 0 0 0-.3-1.4 1.306 1.306 0 0 0-1.2-.6h-3.6zm20.6-17.6L98.6 50.7l-.5.5-13.8 21.2-2.7.5 7.1-20.3a1.551 1.551 0 0 0-2.9-1.1l-2.1 6.7H71V55l20.4-15.3a1.5 1.5 0 1 0-1.8-2.4L68.6 53a1.306 1.306 0 0 0-.6 1.2v3.9h-2.7c-.3 0-.6.1-.8.1L28.2 81a1.417 1.417 0 0 0-.4 2.1c.1.5.8.8 1.2.8a1.077 1.077 0 0 0 .8-.2l36-22.5h17l-4.5 13.2a1.237 1.237 0 0 0 .3 1.5 1.974 1.974 0 0 0 1.2.6h.2l5.9-.9A1.524 1.524 0 0 0 87 75l8.9-13.6h3.6l-1.4 4.5h-4.4a1.5 1.5 0 0 0 0 3H97l-.3 1.4H92a1.5 1.5 0 0 0 0 3h3.6l-.5 1.5h-4.6a1.5 1.5 0 0 0 0 3h3.8l-.5 1.5H65.3a1.823 1.823 0 0 0-1.1.5l-30.6 27.4a1.675 1.675 0 0 0-.2 2.1 1.823 1.823 0 0 0 1.1.5 1.389 1.389 0 0 0 1-.5l14.1-12.7a38.509 38.509 0 0 0 25.8 10 39.243 39.243 0 0 0 39-39.3 38.278 38.278 0 0 0-5.4-19.8l13.7-9.2a1.507 1.507 0 0 0 .5-2.1 1.306 1.306 0 0 0-1.2-.7.972.972 0 0 0-.9.1" class="cls-1" data-name="Path 137"/>        </clipPath>        <clipPath id="clip-path-2">            <path id="Path_139" d="M115.1 19.1L98.4 31.2a1.552 1.552 0 0 0-.3 2.1 1.218 1.218 0 0 0 1.2.6 3.178 3.178 0 0 0 .9-.3l16.7-12.1a1.552 1.552 0 0 0 .3-2.1 1.425 1.425 0 0 0-1.2-.6 1.613 1.613 0 0 0-.9.3" class="cls-1" data-name="Path 139"/>        </clipPath>        <clipPath id="clip-path-3">            <path id="Path_141" d="M54.3 34.2a1.507 1.507 0 0 0-.5 2.1 1.974 1.974 0 0 0 1.2.6 1.909 1.909 0 0 0 .8-.3 36.779 36.779 0 0 1 19.7-5.8 35.878 35.878 0 0 1 18.8 5.3 1.468 1.468 0 0 0 2.1-.5 1.552 1.552 0 0 0-.5-2.1 38.9 38.9 0 0 0-20.4-5.8 40.03 40.03 0 0 0-21.2 6.5" class="cls-1" data-name="Path 141"/>        </clipPath>        <clipPath id="clip-path-4">            <path id="Path_143" d="M47.4 39.8a39.328 39.328 0 0 0-11 27.4c0 1.5.2 3.2.3 4.7a1.684 1.684 0 0 0 1.5 1.4h.1a1.805 1.805 0 0 0 1.4-1.7 32.529 32.529 0 0 1-.3-4.4 36.647 36.647 0 0 1 10.1-25.3 1.45 1.45 0 0 0 0-2.1 1.606 1.606 0 0 0-1.1-.5 2.355 2.355 0 0 0-1 .5" class="cls-1" data-name="Path 143"/>        </clipPath>        <clipPath id="clip-path-5">            <path id="Path_145" d="M29.4 116.5l-1.5 1.5a1.45 1.45 0 0 0 0 2.1 1.389 1.389 0 0 0 1 .5 1.433 1.433 0 0 0 1.1-.5l1.5-1.5a1.45 1.45 0 0 0 0-2.1 1.606 1.606 0 0 0-1.1-.5 1.389 1.389 0 0 0-1 .5" class="cls-1" data-name="Path 145"/>        </clipPath>    </defs>    <g id="Icon_Agreement" data-name="Icon Agreement" transform="translate(-27.45 -18.8)">        <g id="Group_157" data-name="Group 157">            <g id="Group_156" class="cls-2" data-name="Group 156">                <path id="Path_136" d="M0 47.3L108.2 0l42.7 97.8-108.2 47.3z" class="cls-1" data-name="Path 136"/>            </g>        </g>        <g id="Group_159" data-name="Group 159">            <g id="Group_158" class="cls-3" data-name="Group 158">                <path id="Path_138" d="M92.1 21.2l22.3-9.7 8.8 20-22.3 9.7z" class="cls-1" data-name="Path 138"/>            </g>        </g>        <g id="Group_161" data-name="Group 161">            <g id="Group_160" class="cls-4" data-name="Group 160">                <path id="Path_140" d="M50.1 29.3L89.8 12l10.3 23.5-39.7 17.4z" class="cls-1" data-name="Path 140"/>            </g>        </g>        <g id="Group_163" data-name="Group 163">            <g id="Group_162" class="cls-5" data-name="Group 162">                <path id="Path_142" d="M24 44.8l23.9-10.4 14.6 33.4-23.9 10.5z" class="cls-1" data-name="Path 142"/>            </g>        </g>        <g id="Group_165" data-name="Group 165">            <g id="Group_164" class="cls-6" data-name="Group 164">                <path id="Path_144" d="M25.6 116.8l5.7-2.5 2.4 5.6-5.7 2.5z" class="cls-1" data-name="Path 144"/>            </g>        </g>    </g></svg>