<svg xmlns="http://www.w3.org/2000/svg" viewBox="0 0 74.6 98">    <defs>        <style>            .cls-1{fill:url(#linear-gradient)}.cls-2{clip-path:url(#clip-path)}.cls-3{clip-path:url(#clip-path-2)}        </style>        <linearGradient id="linear-gradient" x1=".281" x2=".718" y1=".438" y2=".44" gradientUnits="objectBoundingBox">            <stop offset="0" stop-color="#eb008b"/>            <stop offset="1" stop-color="#682262"/>        </linearGradient>        <clipPath id="clip-path">            <path id="Path_147" d="M67.8 103.6a2.742 2.742 0 0 1-1.3-1.7 2.581 2.581 0 0 1 .3-2.1 2.742 2.742 0 0 1 1.7-1.3 2.581 2.581 0 0 1 2.1.3 2.742 2.742 0 0 1 1.3 1.7 2.581 2.581 0 0 1-.3 2.1 2.742 2.742 0 0 1-1.7 1.3 1.7 1.7 0 0 1-.7.1 5.732 5.732 0 0 1-1.4-.4m5.4-6.5l.2-.4c-.1.1-.1.2-.2.4m-16.3-4.8a3.147 3.147 0 0 1-1.7-1.3 2.847 2.847 0 1 1 3.9 1 2.3 2.3 0 0 1-1.4.4c-.3 0-.6-.1-.8-.1m55.3.1a4.573 4.573 0 0 0-2.7-2.9 2.2 2.2 0 0 1 .4-1.3 2.847 2.847 0 1 1 4.9 2.9 2.742 2.742 0 0 1-1.7 1.3 1.7 1.7 0 0 1-.7.1c-.1-.1-.1-.1-.2-.1m-22-6.8l.7 1.2c-.2.1-.5.2-.7.3zm-10.3-.2v9a4.89 4.89 0 0 0-5.6 1 5.008 5.008 0 0 0-.7.8zm14.3 1.4l-4-6.9v-.7a2.2 2.2 0 0 0-.1-.8l16.8 9.7c-.1.3-.1.6-.2 1a4.756 4.756 0 0 0-2.1.7 5.113 5.113 0 0 0-4.7-3.2 5.061 5.061 0 0 0-3.7 1.6 3.882 3.882 0 0 0-2-1.4M50.5 73.7a2.8 2.8 0 0 1 2.8-2.8 2.862 2.862 0 0 1 2.8 2.8 2.8 2.8 0 1 1-5.6 0m63.3 0a2.8 2.8 0 1 1 2.8 2.8 2.8 2.8 0 0 1-2.8-2.8m-31.6-.2a2.8 2.8 0 0 1 2.8-2.8 2.862 2.862 0 0 1 2.8 2.8 4.253 4.253 0 0 1-.2 1.1 4.756 4.756 0 0 0-2.1-.7 6 6 0 0 0-3.2.7 3.749 3.749 0 0 1-.1-1.1m-26-13.2a2.884 2.884 0 0 1-1-3.9 2.742 2.742 0 0 1 1.7-1.3 1.7 1.7 0 0 1 .7-.1 2.3 2.3 0 0 1 1.4.4 2.8 2.8 0 0 1 1 3.9 2.742 2.742 0 0 1-1.7 1.3 1.7 1.7 0 0 1-.7.1 2.3 2.3 0 0 1-1.4-.4m55.5.3a3.147 3.147 0 0 1-1.7-1.3 2.884 2.884 0 0 1 1-3.9 2.3 2.3 0 0 1 1.4-.4 1.7 1.7 0 0 1 .7.1 3.147 3.147 0 0 1 1.7 1.3 2.884 2.884 0 0 1-1 3.9 2.3 2.3 0 0 1-1.4.4 1.483 1.483 0 0 1-.7-.1M68.4 49a3.147 3.147 0 0 1-1.7-1.3 2.635 2.635 0 0 1-.3-2.1 3.147 3.147 0 0 1 1.3-1.7 2.3 2.3 0 0 1 1.4-.4 1.7 1.7 0 0 1 .7.1 3.147 3.147 0 0 1 1.7 1.3 2.884 2.884 0 0 1-1 3.9 2.3 2.3 0 0 1-1.4.4 6.372 6.372 0 0 0-.7-.2m13.8-6.9a2.8 2.8 0 1 1 2.8 2.8 2.8 2.8 0 0 1-2.8-2.8m-2.9 0a5.675 5.675 0 0 0 4.3 5.5V68c-.1 0-.1 0-.2.1L73.2 50.4a5.592 5.592 0 0 0 .9-6.9 5.926 5.926 0 0 0-3.5-2.7 5.4 5.4 0 0 0-4.3.6 5.926 5.926 0 0 0-2.7 3.5 5.4 5.4 0 0 0 .6 4.3 5.926 5.926 0 0 0 3.5 2.7 5.725 5.725 0 0 0 3 0l10.2 17.7-.1.1-17.7-10.3a5.679 5.679 0 1 0-8.3 3.5 5.963 5.963 0 0 0 2.8.8 5.835 5.835 0 0 0 4.1-1.7l17.8 10.3v.1H58.9a5.678 5.678 0 1 0-5.5 7 5.675 5.675 0 0 0 5.5-4.3h20.7v.1L61.7 85.5a5.592 5.592 0 0 0-6.9-.9 5.733 5.733 0 0 0-2.1 7.8 5.926 5.926 0 0 0 3.5 2.7 7.719 7.719 0 0 0 1.5.2 5.376 5.376 0 0 0 2.8-.8 5.579 5.579 0 0 0 2.6-6.4L80 78.3c0 .2-.1.5-.1.8v.6l-9.2 16a5.112 5.112 0 0 0-3 0 5.57 5.57 0 0 0-3.5 2.7 5.451 5.451 0 0 0-.6 4.3 5.57 5.57 0 0 0 2.7 3.5 5.963 5.963 0 0 0 2.8.8 7.719 7.719 0 0 0 1.5-.2 5.57 5.57 0 0 0 3.5-2.7 6.117 6.117 0 0 0 .5-1.2 43.811 43.811 0 0 1 6.2 11.3 15.237 15.237 0 0 0 6.7 7.9l-.8 10.7a1.5 1.5 0 0 0 .4 1.1 1.606 1.606 0 0 0 1.1.5h16a1.606 1.606 0 0 0 1.1-.5 1.5 1.5 0 0 0 .4-1.1l-.8-10.7a15.6 15.6 0 0 0 7-8.8 1.456 1.456 0 0 0-2.8-.8 12.8 12.8 0 0 1-6.5 7.6 1.6 1.6 0 0 0-.8 1.4l.8 10.1H89.8l.8-10.1a1.6 1.6 0 0 0-.8-1.4 12.84 12.84 0 0 1-6.2-6.8 46.793 46.793 0 0 0-7.1-12.6l-.5-.8a1.917 1.917 0 0 1 .4-2.5 2.034 2.034 0 0 1 2.5-.3 3.039 3.039 0 0 1 1.2 1.3 1.351 1.351 0 0 0 1.6.7 1.5 1.5 0 0 0 1.1-1.4V79.1a2.837 2.837 0 0 1 .7-1.7 2.715 2.715 0 0 1 1.7-.6 2.285 2.285 0 0 1 2 2.3v18.2a1.4 1.4 0 0 0 2.8 0v-5.7a2.333 2.333 0 0 1 2.4-2.2 2.22 2.22 0 0 1 2.2 2.2v5.7a1.4 1.4 0 0 0 2.8 0v-5.8a2.22 2.22 0 0 1 2.2-2.2 2.174 2.174 0 0 1 2.2 1.9v6.1a1.4 1.4 0 0 0 2.8 0v-3.6a2.174 2.174 0 0 1 2.2-1.9h.2a2.2 2.2 0 0 1 2.2 2.1v8.9a1.4 1.4 0 1 0 2.8 0v-7.6a6.753 6.753 0 0 0 1.4-.2 5.57 5.57 0 0 0 3.5-2.7 5.721 5.721 0 0 0-9-6.9L90.4 75.2v-.1h20.7a5.689 5.689 0 1 0 5.5-7.1 5.675 5.675 0 0 0-5.5 4.3H90.6v-.1l17.8-10.3a5.835 5.835 0 0 0 4.1 1.7 4.789 4.789 0 0 0 2.8-.8 5.712 5.712 0 1 0-5.7-9.9 5.579 5.579 0 0 0-2.6 6.4L89.2 69.6l-.1-.1 3.2-5.5a1.458 1.458 0 0 0-2.5-1.5l-3.1 5.4c-.1 0-.1 0-.2-.1V47.6a5.686 5.686 0 0 0-1.4-11.2 5.658 5.658 0 0 0-5.8 5.7" class="cls-1" data-name="Path 147"/>        </clipPath>        <clipPath id="clip-path-2">            <path id="Path_149" d="M99.4 48.8a2.884 2.884 0 0 1-1-3.9 2.742 2.742 0 0 1 1.7-1.3 1.7 1.7 0 0 1 .7-.1 2.3 2.3 0 0 1 1.4.4 2.742 2.742 0 0 1 1.3 1.7 2.581 2.581 0 0 1-.3 2.1 2.742 2.742 0 0 1-1.7 1.3 1.7 1.7 0 0 1-.7.1 3.194 3.194 0 0 1-1.4-.3m-.1-8a5.57 5.57 0 0 0-3.5 2.7 5.73 5.73 0 0 0 .9 6.9l-2 3.5a1.456 1.456 0 0 0 .5 2 1.854 1.854 0 0 0 .7.2 1.387 1.387 0 0 0 1.2-.7l2-3.5a5.725 5.725 0 0 0 3 0 5.57 5.57 0 0 0 3.5-2.7 5.451 5.451 0 0 0 .6-4.3 5.57 5.57 0 0 0-2.7-3.5 5.963 5.963 0 0 0-2.8-.8 7.844 7.844 0 0 0-1.4.2" class="cls-1" data-name="Path 149"/>        </clipPath>    </defs>    <g id="Icon_Flexible" data-name="Icon Flexible" transform="translate(-47.7 -36.4)">        <g id="Group_168" data-name="Group 168">            <g id="Group_167" class="cls-2" data-name="Group 167">                <path id="Path_146" d="M0 74.3L93.4 0 170 96.3l-93.4 74.3z" class="cls-1" data-name="Path 146"/>            </g>        </g>        <g id="Group_170" data-name="Group 170">            <g id="Group_169" class="cls-3" data-name="Group 169">                <path id="Path_148" d="M86.9 46.6l15-12 12.3 15.5-15 12z" class="cls-1" data-name="Path 148"/>            </g>        </g>    </g></svg>