<svg xmlns="http://www.w3.org/2000/svg" viewBox="0 0 146.958 139.807">    <defs>        <style>            .cls-1{fill:url(#linear-gradient)}.cls-2{clip-path:url(#clip-path)}.cls-3{clip-path:url(#clip-path-2)}.cls-4{clip-path:url(#clip-path-3)}.cls-5{clip-path:url(#clip-path-4)}.cls-6{clip-path:url(#clip-path-5)}        </style>        <linearGradient id="linear-gradient" x1="-2.156" x2="10.982" gradientUnits="objectBoundingBox">            <stop offset="0" stop-color="#eb008b"/>            <stop offset="1" stop-color="#682262"/>        </linearGradient>        <clipPath id="clip-path">            <path id="Rectangle_43" d="M0 0h6.257v6.257H0z" class="cls-1" data-name="Rectangle 43"/>        </clipPath>        <clipPath id="clip-path-2">            <path id="Rectangle_44" d="M0 0h25.029v6.257H0z" class="cls-1" data-name="Rectangle 44"/>        </clipPath>        <clipPath id="clip-path-3">            <path id="Path_116" d="M44.675 151.892a24.092 24.092 0 0 1 17.878-23.242l19.847-5.363 10.727 35.578H44.675zm66.685-28.605l19.845 5.363a24.092 24.092 0 0 1 17.878 23.242v6.972h-48.45zm-24.314-3.933V112.2a30.634 30.634 0 0 0 9.833 1.609 29.566 29.566 0 0 0 9.654-1.609v7.151L96.7 151.535zm7.866-21.633v-3.039a.571.571 0 0 1 .536-.536h6.615a.571.571 0 0 1 .536.536v3.039a.571.571 0 0 1-.536.536h-6.614a.474.474 0 0 1-.536-.536M58.62 84.313V71.977a3.968 3.968 0 0 1 3.933-3.933h3.576v15.2a43.834 43.834 0 0 0 .358 4.827h-3.934a3.709 3.709 0 0 1-3.933-3.754m69.01-.894v-15.2h3.4a3.968 3.968 0 0 1 3.933 3.933v12.157a3.968 3.968 0 0 1-3.933 3.933h-3.754a43.838 43.838 0 0 0 .358-4.827m-43.27 21.275a24.338 24.338 0 0 1-12.335-21.275V71.083h29.32a26.159 26.159 0 0 0 15.375-4.827l5.006-3.4v20.56a23.5 23.5 0 0 1-2.5 10.548h-11.266a6.164 6.164 0 0 0-6.079-5.363H95.27a6.334 6.334 0 0 0-6.257 6.257V97.9a6.334 6.334 0 0 0 6.257 6.257h6.615a6.344 6.344 0 0 0 5.9-4.291h7.866a27.517 27.517 0 0 1-6.079 5.006 26.09 26.09 0 0 1-12.515 3.218 28.617 28.617 0 0 1-12.693-3.4M72.029 65a24.9 24.9 0 0 1 48.45-8.224l-6.972 4.827a20.82 20.82 0 0 1-12.157 3.754h-29.5a.624.624 0 0 1 .179-.357m24.85-34.679a35.154 35.154 0 0 1 34.862 32h-4.291c0-.179 0-.179-.179-.358a30.6 30.6 0 0 0-60.964.358h-4.29a35.154 35.154 0 0 1 34.862-32M56.3 64.826a9.7 9.7 0 0 0-3.218 7.33v12.157a9.614 9.614 0 0 0 9.654 9.654h5.542a30.02 30.02 0 0 0 13.409 15.554 2.268 2.268 0 0 0-.179 1.073v6.794l-20.385 5.542a29.829 29.829 0 0 0-21.99 28.784v6.972H26.261a2.86 2.86 0 1 0 0 5.721H167.5a2.86 2.86 0 0 0 0-5.721h-12.7v-6.972a30.037 30.037 0 0 0-21.99-28.784l-20.381-5.542v-6.794a2.268 2.268 0 0 0-.179-1.073h.179a30.717 30.717 0 0 0 13.409-15.554h5.363a9.614 9.614 0 0 0 9.654-9.654V71.977a9.594 9.594 0 0 0-3.218-7.151 40.675 40.675 0 0 0-81.346 0" class="cls-1" data-name="Path 116" transform="translate(-23.4 -24.6)"/>        </clipPath>        <clipPath id="clip-path-4">            <path id="Path_118" d="M57.494 54.694a2.61 2.61 0 1 0 1.966-.894 2.871 2.871 0 0 0-1.967.894" class="cls-1" data-name="Path 118" transform="translate(-56.6 -53.8)"/>        </clipPath>        <clipPath id="clip-path-5">            <path id="Path_120" d="M70.094 54.694a2.61 2.61 0 1 0 1.967-.894 2.871 2.871 0 0 0-1.967.894" class="cls-1" data-name="Path 120" transform="translate(-69.2 -53.8)"/>        </clipPath>    </defs>    <g id="Contact_us_icon" data-name="Contact us icon" transform="translate(-855.191 -2044)">        <g id="Group_124" class="cls-2" data-name="Group 124" transform="translate(888.98 2171.292)">            <path id="Path_113" d="M41.3 97.2l7.509-2.5 2.5 7.509-7.509 2.5z" class="cls-1" data-name="Path 113" transform="translate(-43.088 -96.667)"/>        </g>        <g id="Group_126" class="cls-3" data-name="Group 126" transform="translate(942.794 2171.292)">            <path id="Path_114" d="M71.4 99.645L95.714 91.6l4.47 13.051-24.493 8.224z" class="cls-1" data-name="Path 114" transform="translate(-73.188 -99.109)"/>        </g>        <g id="Group_128" class="cls-4" data-name="Group 128" transform="translate(855.191 2044)">            <path id="Path_115" d="M0 57.925L174.133 0l56.495 170.021-174.133 57.925z" class="cls-1" data-name="Path 115" transform="translate(-41.835 -43.98)"/>        </g>        <g id="Group_130" class="cls-5" data-name="Group 130" transform="translate(914.546 2096.204)">            <path id="Path_117" d="M55.6 55.124l6.972-2.324 2.328 6.972-6.976 2.328z" class="cls-1" data-name="Path 117" transform="translate(-57.388 -54.588)"/>        </g>        <g id="Group_132" class="cls-6" data-name="Group 132" transform="translate(937.073 2096.204)">            <path id="Path_119" d="M68.2 55.124l6.972-2.324 2.328 6.972-6.976 2.328z" class="cls-1" data-name="Path 119" transform="translate(-69.988 -54.588)"/>        </g>    </g></svg>