<svg xmlns="http://www.w3.org/2000/svg" viewBox="0 0 91.378 104.9">    <defs>        <style>            .cls-1{fill:url(#linear-gradient)}.cls-2{clip-path:url(#clip-path)}.cls-3{clip-path:url(#clip-path-2)}.cls-4{clip-path:url(#clip-path-3)}.cls-5{clip-path:url(#clip-path-4)}.cls-6{clip-path:url(#clip-path-5)}.cls-7{clip-path:url(#clip-path-6)}.cls-8{clip-path:url(#clip-path-7)}.cls-9{clip-path:url(#clip-path-8)}.cls-10{clip-path:url(#clip-path-9)}.cls-11{clip-path:url(#clip-path-10)}        </style>        <linearGradient id="linear-gradient" x1=".185" x2="1.435" y1=".585" y2=".57" gradientUnits="objectBoundingBox">            <stop offset="0" stop-color="#eb008b"/>            <stop offset="1" stop-color="#682262"/>        </linearGradient>        <clipPath id="clip-path">            <path id="Rectangle_18" d="M0 0h3.5v5.3H0z" class="cls-1" data-name="Rectangle 18" transform="rotate(-45.012 59.02 -28.213)"/>        </clipPath>        <clipPath id="clip-path-2">            <path id="Rectangle_19" d="M0 0h5.3v3.5H0z" class="cls-1" data-name="Rectangle 19" transform="translate(29.7 51.6)"/>        </clipPath>        <clipPath id="clip-path-3">            <path id="Rectangle_20" d="M0 0h5.3v3.5H0z" class="cls-1" data-name="Rectangle 20" transform="rotate(-45 106.923 -8.34)"/>        </clipPath>        <clipPath id="clip-path-4">            <path id="Path_76" d="M50.8 8.6l4.6 4.6a45.6 45.6 0 0 0-6.9 89.7l.8-3.4a42.142 42.142 0 0 1 5.6-82.8L50.8 21l2.5 2.5 7.4-7.4a1.751 1.751 0 0 0 0-2.5l-7.4-7.4z" class="cls-1" data-name="Path 76"/>        </clipPath>        <clipPath id="clip-path-5">            <path id="Path_78" d="M69.6 17.7a42.136 42.136 0 0 1-5.6 82.8l4.2-4.2-2.5-2.5-7.4 7.4a1.751 1.751 0 0 0 0 2.5l7.4 7.4 2.5-2.5-4.6-4.6a45.613 45.613 0 0 0 7-89.7z" class="cls-1" data-name="Path 78"/>        </clipPath>        <clipPath id="clip-path-6">            <path id="Path_80" d="M52.5 81.4h14a5.335 5.335 0 0 1-5.3 5.3h-3.5a5.316 5.316 0 0 1-5.2-5.3m7.9-7.1a4.869 4.869 0 0 0 1.2-.1c.3 0 .7-.1 1-.1a6.753 6.753 0 0 1 1.4-.2c.2 0 .5-.1.7-.1a13.894 13.894 0 0 0 1.9-.6v4.7h-14v-4.7c.6.2 1.3.4 1.9.6a1.7 1.7 0 0 0 .7.1 6.753 6.753 0 0 0 1.4.2c.3 0 .7.1 1 .1.4 0 .8.1 1.2.1.3 0 .6.1.9.1a2.252 2.252 0 0 0 .7-.1M51.6 69a17.5 17.5 0 1 1 15.8 0 17.014 17.014 0 0 1-6.2 1.8V58.6H63A5.3 5.3 0 1 0 63 48v3.5a1.8 1.8 0 0 1 0 3.6h-7a1.8 1.8 0 1 1 0-3.6V48a5.3 5.3 0 0 0 0 10.6h1.8v12.2a16.467 16.467 0 0 1-6.2-1.8M49 35.1a20.981 20.981 0 0 0-7.7 28.7 20.335 20.335 0 0 0 7.7 7.7v9.8a8.813 8.813 0 0 0 8.8 8.8h3.5a8.813 8.813 0 0 0 8.8-8.8v-9.8A21.037 21.037 0 0 0 49 35.1" class="cls-1" data-name="Path 80"/>        </clipPath>        <clipPath id="clip-path-7">            <path id="Rectangle_17" d="M0 0h3.5v5.3H0z" class="cls-1" data-name="Rectangle 17" transform="translate(57.8 23.5)"/>        </clipPath>        <clipPath id="clip-path-8">            <path id="Rectangle_21" d="M0 0h3.5v5.3H0z" class="cls-1" data-name="Rectangle 21" transform="rotate(-45 124.644 -55.3)"/>        </clipPath>        <clipPath id="clip-path-9">            <path id="Rectangle_22" d="M0 0h5.3v3.5H0z" class="cls-1" data-name="Rectangle 22" transform="translate(84.1 51.6)"/>        </clipPath>        <clipPath id="clip-path-10">            <path id="Rectangle_23" d="M0 0h5.3v3.5H0z" class="cls-1" data-name="Rectangle 23" transform="rotate(-45 79.828 -73.929)"/>        </clipPath>    </defs>    <g id="Icon_Cost" data-name="Icon Cost" transform="translate(-13.823 -6.2)">        <g id="Group_66" data-name="Group 66">            <g id="Group_65" class="cls-2" data-name="Group 65">                <path id="Path_82" d="M36.4 31.1l6.9-.8.9 6.8-6.9.9z" class="cls-1" data-name="Path 82"/>            </g>        </g>        <g id="Group_68" data-name="Group 68">            <g id="Group_67" class="cls-3" data-name="Group 67">                <path id="Path_83" d="M29.3 51.6l5.6-.7.5 4.1-5.6.7z" class="cls-1" data-name="Path 83"/>            </g>        </g>        <g id="Group_70" data-name="Group 70">            <g id="Group_69" class="cls-4" data-name="Group 69">                <path id="Path_84" d="M36.4 69.6l6.9-.9.9 6.9-6.9.8z" class="cls-1" data-name="Path 84"/>            </g>        </g>        <g id="Group_206" data-name="Group 206">            <g id="Group_58" data-name="Group 58">                <g id="Group_57" class="cls-5" data-name="Group 57">                    <path id="Path_75" d="M0 7.6L60.7 0l12.6 101.4-60.7 7.6z" class="cls-1" data-name="Path 75"/>                </g>            </g>            <g id="Group_60" data-name="Group 60">                <g id="Group_59" class="cls-6" data-name="Group 59">                    <path id="Path_77" d="M45.7 15.8l59.6-7.4 12.6 101.3-59.6 7.4z" class="cls-1" data-name="Path 77"/>                </g>            </g>            <g id="Group_62" data-name="Group 62">                <g id="Group_61" class="cls-7" data-name="Group 61">                    <path id="Path_79" d="M28.4 33.2l54.4-6.8 7.9 62.9-54.5 6.8z" class="cls-1" data-name="Path 79"/>                </g>            </g>            <g id="Group_64" data-name="Group 64">                <g id="Group_63" class="cls-8" data-name="Group 63">                    <path id="Path_81" d="M57.1 23.6l4.1-.5.7 5.6-4.1.5z" class="cls-1" data-name="Path 81"/>                </g>            </g>            <g id="Group_72" data-name="Group 72">                <g id="Group_71" class="cls-9" data-name="Group 71">                    <path id="Path_85" d="M74.9 69.6l6.9-.9.8 6.9-6.9.8z" class="cls-1" data-name="Path 85"/>                </g>            </g>            <g id="Group_74" data-name="Group 74">                <g id="Group_73" class="cls-10" data-name="Group 73">                    <path id="Path_86" d="M83.6 51.6l5.7-.7.5 4.1-5.6.7z" class="cls-1" data-name="Path 86"/>                </g>            </g>            <g id="Group_76" data-name="Group 76">                <g id="Group_75" class="cls-11" data-name="Group 75">                    <path id="Path_87" d="M74.9 31.1l6.9-.8.8 6.8-6.9.9z" class="cls-1" data-name="Path 87"/>                </g>            </g>        </g>    </g></svg>