<?xml version="1.0" encoding="utf-8"?>
<!-- Generator: Adobe Illustrator 24.2.0, SVG Export Plug-In . SVG Version: 6.00 Build 0)  -->
<svg version="1.1" id="Layer_1" xmlns="http://www.w3.org/2000/svg" xmlns:xlink="http://www.w3.org/1999/xlink" x="0px" y="0px"
	 viewBox="0 0 1359.08 287.46" style="enable-background:new 0 0 1359.08 287.46;" xml:space="preserve">
<style type="text/css">
	.st0{fill:#84867B;}
	.st1{fill:url(#SVGID_1_);}
	.st2{fill:#94B03C;}
	.st3{fill:url(#SVGID_2_);}
	.st4{fill:url(#SVGID_3_);}
	.st5{fill:url(#SVGID_4_);}
	.st6{fill:url(#SVGID_5_);}
	.st7{fill:url(#SVGID_6_);}
	.st8{fill:url(#SVGID_7_);}
	.st9{fill:url(#SVGID_8_);}
</style>
<path class="st0" d="M636.4,85.66c0.6-2.26,1.1-4.98,0.89-7.84c-1.95-27.16-29.66-26.5-32.03-26.5c-2.38,0-38.2-0.42-39.4,39.32
	c0,32.79,28.15,39.53,38.49,39.53c5.54,0,11.24-1.21,17.08-3.47c5.84-2.26,10.48-5.73,13.92-10.26l-0.14-0.75
	c-7.04,6.18-14.69,9.2-23.07,9.2c-7.64,0-13.78-3.02-18.58-9.2c-4.79-6.19-7.19-14.79-7.19-25.5c0-1.57,0.02-3.08,0.05-4.53H636.4z
	 M602.09,52.47c2.08-0.38,5.99,0,5.99,0c8.24,1.06,13.19,8,13.19,17.65c0,5.89-1.5,9.81-4.64,11.77c-3.07,1.76-9.53,2.67-19.54,2.85
	c-0.24,0.01-8.5,0.01-10.62,0.02C587.17,62.25,592.5,53.59,602.09,52.47z"/>
<path class="st0" d="M1309.74,81.8c-3.06,1.76-9.52,2.66-19.52,2.85c-0.27,0.01-10.82,0.01-11.09,0.01v0.9h11.03h39.33
	c0.6-2.26,1.1-4.98,0.9-7.84c-1.94-27.13-29.63-26.47-32-26.47c-2.37,0-38.15-0.41-39.36,39.28c0,44.85,52.13,42.94,65.95,35.53
	c9.44-5.06,25.59-14.79,32.41-40.76l-0.78-0.33c0,0-8.29,18.6-22.38,28.43c-9.26,6.46-16.89,8.31-25.26,8.31
	c-7.63,0-16.29-2.12-21.08-8.29c-4.79-6.18-8.36-12.65-8.36-23.35c0-26.52,5.39-36.47,15.71-37.68c2.07-0.38,5.98,0,5.98,0
	c8.23,1.06,13.17,7.99,13.17,17.63C1314.38,75.92,1312.89,79.84,1309.74,81.8z"/>
<path class="st0" d="M1245.83,122.08V13.27l-30.93,5.79v0.78c7.84,0,10.61,2.33,10.61,7.44v94.8c0,4.81-3.54,7.15-10.77,7.15v0.91
	h41.86v-0.91C1249.37,129.23,1245.83,126.89,1245.83,122.08z"/>
<path class="st0" d="M1077.8,57.11l31.09-5.88v70.83c0,4.83,3.56,7.22,10.83,7.22v0.88h-42.07v-0.88c7.27,0,10.83-2.39,10.83-7.22
	V65.37c0-5.14-2.79-7.48-10.67-7.48V57.11z"/>
<path class="st0" d="M1034.64,80.49c-9.58-4.37-17.51-9.95-17.51-16.58c0-16.51,32.48-13.97,32.48-1.66c0,3.62-2.4,6.48-6.59,6.63
	c1.65,4.07,5.09,6.18,10.48,6.18c6.14,0,9.88-3.92,9.88-8.74c0-18.37-61.21-23.96-61.21,6.18c0,13.27,18.11,21.26,31.88,27.74
	c9.58,4.67,17.36,10.25,17.36,16.28c0,17.49-36.82,15.94-36.82,1.21c0-4.07,3.14-6.94,7.78-6.94c-1.94-3.77-5.54-5.73-10.78-5.73
	c-6.14,0-11.23,4.07-11.23,10.1c0,17.24,66,25.15,66-7.39C1066.36,94.21,1048.7,86.68,1034.64,80.49z"/>
<path class="st0" d="M684.26,80.49c-9.58-4.37-17.51-9.95-17.51-16.58c0-16.51,32.48-13.97,32.48-1.66c0,3.62-2.4,6.48-6.59,6.63
	c1.65,4.07,5.09,6.18,10.48,6.18c6.14,0,9.88-3.92,9.88-8.74c0-18.37-61.21-23.96-61.21,6.18c0,13.27,18.11,21.26,31.88,27.74
	c9.58,4.67,17.36,10.25,17.36,16.28c0,17.49-36.82,15.94-36.82,1.21c0-4.07,3.14-6.94,7.78-6.94c-1.94-3.77-5.54-5.73-10.78-5.73
	c-6.14,0-11.23,4.07-11.23,10.1c0,17.24,66,25.15,66-7.39C715.99,94.21,698.33,86.68,684.26,80.49z"/>
<path class="st0" d="M987.67,122.11v-47.5c0-16.09-9.37-23.36-24.12-23.36c-10.28,0-22.66,4.74-31.03,18.41V51.24l-30.87,5.88v0.77
	c7.83,0,10.6,2.32,10.6,7.43v56.78c0,4.8-3.53,7.27-10.75,7.27v0.77h41.78v-0.77c-7.22,0-10.75-2.48-10.75-7.27V71.27
	c1.93-2.99,8.18-12.91,20.12-12.91c9.83,0,14.75,5.42,14.75,16.4v47.35c0,4.8-3.53,7.17-10.6,7.17v0.88h41.63v-0.88
	C991.2,129.28,987.67,126.91,987.67,122.11z"/>
<path class="st0" d="M858.4,51.24c0,0-39.94-1.33-39.94,39.13c0,26.54,19.95,39.78,39.43,39.78c20.02,0,40.44-12.58,40.44-39.78
	C898.34,58.47,871.81,51.24,858.4,51.24z M839,90.36c0-22.22,3.21-38.16,19.41-38.16c13.29,0,19.41,10.35,19.41,38.16
	c0,33.44-9.57,38.68-19.98,38.68C841.33,129.04,839,107.88,839,90.36z"/>
<path class="st0" d="M582.14,147.87v0.02c-15.71-6.46-27.83-19.79-31.16-40.89c-0.18-1.13-3.6-21.06-10.98-28.66
	c-5.63-5.81-15.68-9.94-32.11-10.69c27.63-1.69,44.01-13.79,44.01-34.11c0-22.45-17.07-32.01-55.1-32.56V0.92h-14.54h-6.6h-33.21
	v1.14c10.56,0,14.15,3.42,14.15,9.69v107.37c0,6.65-4.72,9.88-14.15,9.88v1.14h53.96v-1.14c-9.43,0-14.15-3.23-14.15-9.88V68.17
	h12.45v0.02c22.36,0,28.26,24.24,29.11,31.83c0.93,4.62,2.59,31.72,20.4,45.96c12.2,9.75,23.26,14.94,38.51,16.3v-0.05
	c32.13,3.89,53.75-9.42,61.99-21.68v-0.88C635.37,147.34,611.49,158.48,582.14,147.87z M482.27,2.03
	c35.9-1.11,44.01,11.61,44.01,29.33c0,21.83-11.98,36.03-31.4,36.03h-12.61V2.03z"/>
<path d="M650.31,141.2c-0.03-0.04-0.07-0.08-0.1-0.12v-0.02C650.23,141.11,650.27,141.15,650.31,141.2z"/>
<path class="st0" d="M1202.42,59.55c-6.45-5.6-13.65-8.31-21.6-8.31c-9.15,0-18.9,6.23-23.74,13.12c0,0-2.37,3.32-3.71,5.76v-38.7
	h0.04V13.33l-30.96,5.87v0.77c7.86,0,10.63,2.33,10.63,7.44v102.74c0,0,0.01,0,0.04,0c0.44,0,4.19-0.01,5.92-0.29
	c0.06-0.01,0.11-0.02,0.16-0.03c6.24-1.03,14.91-4.76,14.17-17.43c1.41,2.42,11.01,17.7,27.45,17.7c8.86,0,32.11-3.79,32.11-40.17
	C1212.93,76.03,1208.87,65.14,1202.42,59.55z M1173.4,123.7c-12.16,0-18.93-10.7-20.03-12.58V71.45c2.23-3.9,4.5-6.31,4.5-6.31
	c4.26-5.08,9.44-7.4,15.89-7.4c12.61,0,18.77,10.57,18.77,32.19C1192.53,119.1,1178.81,123.7,1173.4,123.7z"/>
<path d="M1133,130.11"/>
<g>
	<path class="st0" d="M807.42,90.34c0,27.19-20.42,39.77-40.43,39.77l-5.3,0.03v-1.08l5.22-0.06c10.42,0,19.98-5.23,19.98-38.66
		c0-27.8-6.12-38.16-19.41-38.16c-0.28,0-0.57,0-0.85,0.03c-0.13,0-0.27,0.01-0.4,0.02c-18.33,1.24-17.66,35.44-17.66,35.44v54.98
		c-0.03,0-0.05,0-0.09,0.01v28.71l-20.97,4.61l-0.02-17.03c-6.26,1.78-42.5,12.3-68.36-9.07c-3.2-2.52-5.81-5.21-7.79-7.88
		c-0.04-0.05-0.08-0.09-0.1-0.14c-0.29-0.37-0.56-0.75-0.81-1.12v-0.88c3.5,2.87,9.03,6.22,16.11,8.74c0,0,19.45,7.97,43.28,0.14
		c5-1.8,10.81-4.43,17.66-8.2v-9.44c0.03,0,0.05,0.01,0.09,0V90.34c0-40.44,39.91-39.12,39.91-39.12
		C780.89,51.22,807.42,58.46,807.42,90.34z"/>
	<linearGradient id="SVGID_1_" gradientUnits="userSpaceOnUse" x1="650.4373" y1="151.3557" x2="727.722" y2="151.3557">
		<stop  offset="0.4109" style="stop-color:#011E41;stop-opacity:0"/>
		<stop  offset="0.514" style="stop-color:#1A3351;stop-opacity:0.175"/>
		<stop  offset="0.734" style="stop-color:#5C6A7B;stop-opacity:0.5484"/>
		<stop  offset="1" style="stop-color:#B2B2B2"/>
	</linearGradient>
	<path class="st1" d="M727.72,140.5v18.4c-7.84,2.09-41.67,11.46-66.81-7.85c-4.56-3.29-8.08-6.93-10.47-10.48v-0.88
		c3.5,2.86,9.02,6.22,16.11,8.74c0,0,22.31,9.14,48.43-1.77l-0.05,0.1C718.73,145.15,722.98,143.1,727.72,140.5z"/>
</g>
<path class="st2" d="M351.69,192.03c1.45,8.88,7.25,16.68,16.19,16.68c13.62,0,16.51-10.55,16.51-15.34l0.01-37.72
	c-7.26-3.18-13.41-7.37-18.55-11.91c0.02-0.01,0.03-0.02,0.05-0.02c0.39-0.2,0.8-0.39,1.19-0.57l-0.08-0.07
	c-0.4,0.18-0.8,0.37-1.19,0.57c-0.02,0-0.03,0.01-0.05,0.02c0.03,0.02,0.05,0.05,0.08,0.07c-0.04,0.02-0.07,0.03-0.11,0.05
	c-33.38,15.97-55.27,39.26-55.27,57.24c0,30.73,24.94,45.85,41.46,48.24c3.58,0.52,7.95,1.07,13.07,1.6c0.9,0.1,1.84,0.2,2.82,0.29
	c0.5,0.05,1,0.09,1.51,0.14c0.31,0.02,0.62,0.05,0.93,0.08c17.96,1.51,44.59,1.85,44.59,1.85h5.34V254H285.91
	c-0.31-0.29-0.92-0.86-1.07-0.99c-24.67-21.53-26.84-37.61-23.73-47.77c2.03,5.34,11.99,29.44,28.12,36.76h24.48
	c-7.88-9.34-16.74-24.06-15.28-41.97c1.54-18.8,14.05-36.39,37.26-52.49l0.36-0.24c0.84-0.58,1.69-1.16,2.56-1.73
	c5.57-3.69,11.71-7.3,18.42-10.82c0.03-0.02,0.06-0.03,0.09-0.05c-0.02-0.02-0.03-0.04-0.05-0.06
	c-9.36-11.27-13.45-22.07-13.95-23.35c-2.2-5.56,8.47-20.55,8.47-20.55v0.02l0.28,4.45c3.66,29.33,18.33,45.53,32.53,54.43v-0.05
	l0.01-77.05c0.09-25.84-10.7-42.2-28.63-46.85c-6.58-1.7-39.14-11.38-77.54-18.33c-38.73-7.02-42.72,32.28-42.72,45.83v99.76
	c84.55-36.22,86.79-88.52,87.53-91.58c4.04,28.35-8.21,50.25-25.38,66.63c4.89-0.05,9.32,0.1,13.3,0.39
	c0.55,0.05,1.09,0.09,1.63,0.14c9.63,0.82,16.51,2.44,20.88,3.81c0.05,0.01,0.09,0.03,0.14,0.04c2.47,0.72,4.32,1.43,5.37,2.03
	c0.05,0.03,0.09,0.05,0.13,0.07c0.04,0.03,0.08,0.04,0.11,0.06c0.09,0.04,0.14,0.07,0.14,0.07c-1.59-0.09-3.15-0.16-4.68-0.2
	c-0.73-0.03-1.46-0.05-2.18-0.05c-1.55-0.03-3.07-0.03-4.56,0c-0.57,0-1.13,0.01-1.69,0.03c-19.73,0.54-36.58,5.09-49.55,12.07
	c-0.31,0.17-0.62,0.34-0.93,0.52c-6.29,3.48-11.63,7.55-15.89,12.02c-0.11,0.1-0.21,0.21-0.3,0.31
	c-7.21,7.65-11.31,16.43-11.69,25.42h-0.01c0,0-0.26,5.27,0.42,10.74c2.55,27.35,19.51,58.55,19.51,58.55h-52.21
	c-15.94-10.4-27.87-21.52-36.64-32.91c0.01,0.09,0.02,0.2,0.04,0.34c0.04,0.37,0.12,0.92,0.25,1.61c0.01,0.11,0.04,0.23,0.06,0.35
	c0.04,0.19,0.08,0.4,0.12,0.61c0.01,0.05,0.02,0.11,0.04,0.17c0.04,0.23,0.09,0.48,0.15,0.73c0.08,0.31,0.15,0.64,0.24,0.97
	c0.07,0.3,0.16,0.6,0.25,0.91c0.08,0.29,0.16,0.59,0.26,0.9c0.02,0.06,0.04,0.13,0.06,0.2c0.26,0.8,0.55,1.66,0.89,2.51
	c0.09,0.22,0.17,0.44,0.26,0.66c0.6,1.47,1.28,2.87,2,4.2c6.64,12.16,17.64,18.75,17.64,18.75h-46.21
	c-15.83-15.29-15.95-31.93-13.37-44.38c4.29,14.28,10.86,29.26,15.8,32.21h15.79c-3.2-5.53-6.23-13.07-6.71-22.28
	c-0.26-4.77,0.16-10,1.6-15.62c-0.03-0.05-0.05-0.1-0.08-0.15c-13.8-27.48-12.1-55.2-6.29-77.14l1.75,0.47
	c-0.02,0.37-0.07,0.71-0.07,1.09c0,89.69,54.82,112.99,55.76,113.63h29.38c-4.93-11.8-12.68-33.58-12.68-54.71
	c0-4.95,0.4-9.49,1.11-13.68c-0.03,0.21-0.06,0.43-0.09,0.65c0.03-0.23,0.07-0.45,0.1-0.67v-0.03c0.06-0.33,0.11-0.65,0.17-0.96
	c0.03-0.18,0.06-0.36,0.1-0.54c0.01-0.09,0.03-0.19,0.05-0.28c0-0.04,0.01-0.08,0.02-0.12c0.05-0.31,0.11-0.61,0.17-0.9
	c0.09-0.47,0.18-0.92,0.28-1.34c0.76-3.41,1.54-5.57,1.83-6.3c0.02-0.05,0.04-0.09,0.05-0.13c0.04-0.1,0.06-0.15,0.06-0.15
	c-9.76,3.74-16.31,5.48-16.31,5.48V64.09c-0.44,0.1-1.51,0.34-3.1,0.7l-1.77,0.39l-1.16,0.25l-0.66,0.15l-2.44,0.54l-2.22,0.49
	c-23.99,5.34-78.23,17.43-94.35,21.17c-12.35,2.87-22.88,13.76-30.82,34.67c-19.31,53.14,5.64,114.98,7.39,119.4h27.39
	c-0.6-11.68,1.25-36.62,19.64-75.35l1.4,0.67c-15.82,69.31-6.41,86.84-6.41,86.84L0.82,254.02v-0.79c0,0,13.54-0.09,15.9-0.11h0.32
	l0.79-0.02c25.12-0.58,51.41-2.54,64.76-11.32C59.98,177.01,77.3,131.74,78.9,126.8c0,0-0.08,0.06-0.23,0.16
	c-0.14,0.1-0.29,0.21-0.45,0.31c-0.24,0.17-0.52,0.37-0.84,0.6c-0.02,0.01-0.04,0.02-0.06,0.05c-0.31,0.21-0.65,0.46-1.02,0.74
	c-0.16,0.12-0.32,0.24-0.49,0.36c-0.14,0.11-0.29,0.22-0.45,0.35c-0.39,0.3-0.8,0.62-1.22,0.95c-0.25,0.2-0.5,0.4-0.75,0.61
	c-1.13,0.92-2.29,1.93-3.31,2.95l-0.06,0.06c-0.02,0.02-0.04,0.04-0.05,0.04c-9.12,8.79-20.09,25.18-14.69,53.26H54
	c-7.02-21.56,0.47-42.35,0.47-42.35s4.45-14.15,18.94-26.43c0.01-0.01,0.01-0.01,0.02-0.02c0.71-0.61,1.44-1.2,2.17-1.76
	c0.47-0.37,0.97-0.73,1.46-1.1c0.46-0.34,0.92-0.66,1.37-0.97c0.18-0.12,0.35-0.24,0.52-0.36c0.31-0.21,0.61-0.41,0.91-0.61
	c0.2-0.13,0.39-0.25,0.58-0.38c0.22-0.14,0.43-0.27,0.63-0.4c0.15-0.1,0.31-0.19,0.46-0.29c0.3-0.18,0.58-0.36,0.86-0.53
	c0.14-0.08,0.27-0.16,0.4-0.24c0.33-0.2,0.64-0.38,0.92-0.55c0.11-0.06,0.23-0.13,0.34-0.2c0.09-0.05,0.18-0.1,0.27-0.15
	c0.07-0.05,0.15-0.09,0.23-0.13c0.14-0.09,0.26-0.16,0.38-0.22c0.56-0.31,0.88-0.48,0.88-0.48c12.56-25.82,31.14-28.79,31.14-28.79
	l93.37-20.54v-0.01l13.12-2.88v-4.82c0-57.93,47.25-54.26,65.36-49.85l58.86,13.86c24.94,6.24,48.37,18.06,48.37,54.69l-0.01,58.97
	h0.01v24.86c9.77,3.96,17.46,4.75,18.28,4.85h0.03c0.94,0.14,2.11,0.24,3.16,0.3l2.66,0.06h0.03v0.98h-0.08
	c-0.55,0-3.84,0-5.92-0.07c-6.59,0-12.63-0.76-18.16-2.11l-0.01,19.7v13.91c0,17.05-12.38,27.72-27.59,27.72
	c-15.24,0-27.6-12.44-27.6-27.8c0-18.87,16.82-27.21,28.28-27.21c0.02,0-0.02,1.36-0.02,1.36
	C360.15,167.25,348.98,175.34,351.69,192.03z"/>
<g>
	<linearGradient id="SVGID_2_" gradientUnits="userSpaceOnUse" x1="335.8474" y1="153.9203" x2="362.7681" y2="138.3776">
		<stop  offset="0.2089" style="stop-color:#94B03C"/>
		<stop  offset="0.3952" style="stop-color:#89A438"/>
		<stop  offset="0.7903" style="stop-color:#6D832C"/>
		<stop  offset="0.8608" style="stop-color:#677C2A"/>
	</linearGradient>
	<path class="st3" d="M365.87,143.75c-8.16,3.87-15.65,8.19-22.3,12.78c-3.25-2.71-6.72-5.14-10.39-7.23
		c6.96-5.01,14.94-9.88,23.95-14.6c2.5,3.04,5.4,6.1,8.72,9.03C365.86,143.74,365.86,143.74,365.87,143.75z"/>
</g>
<linearGradient id="SVGID_3_" gradientUnits="userSpaceOnUse" x1="3129.2754" y1="1070.3373" x2="3131.2256" y2="1082.4541" gradientTransform="matrix(-0.7563 -0.6542 -0.6542 0.7563 3246.2661 1454.0669)">
	<stop  offset="0.3021" style="stop-color:#677C2A"/>
	<stop  offset="0.7527" style="stop-color:#94B03C"/>
</linearGradient>
<path class="st4" d="M183.64,235.16c0.36,0.59-2.19,0.53-5.39-2.16c-4.87-4.1-11.57-11.79-11.69-13.67
	c-0.53-7.84,1.62-15.99,1.62-15.99s6.93,12.45,10.81,17.47c0,0,0.25,3.03,1.5,6.99C181.28,230.28,182.46,233.21,183.64,235.16z"/>
<linearGradient id="SVGID_4_" gradientUnits="userSpaceOnUse" x1="210.4169" y1="67.1237" x2="223.3795" y2="57.7059">
	<stop  offset="0.2089" style="stop-color:#94B03C"/>
	<stop  offset="0.3952" style="stop-color:#89A438"/>
	<stop  offset="0.7903" style="stop-color:#6D832C"/>
	<stop  offset="0.8608" style="stop-color:#677C2A"/>
</linearGradient>
<polygon class="st5" points="223.47,57.83 223.47,64.1 210.32,66.99 210.32,60.73 "/>
<linearGradient id="SVGID_5_" gradientUnits="userSpaceOnUse" x1="4189.6602" y1="3896.8972" x2="4186.0811" y2="3888.9788" gradientTransform="matrix(0.0118 -0.9999 -0.9999 -0.0118 3919.7473 4355.0835)">
	<stop  offset="0.2089" style="stop-color:#94B03C"/>
	<stop  offset="0.3952" style="stop-color:#89A438"/>
	<stop  offset="0.7903" style="stop-color:#6D832C"/>
	<stop  offset="0.8608" style="stop-color:#677C2A"/>
</linearGradient>
<path class="st6" d="M70.04,133.95c-1.09,1.08,1.32-13.72,3.41-15.5c5.71-4.86,12.38-8.37,12.38-8.37s-5.1,10.56-6.91,16.73
	C78.92,126.81,73.66,130.35,70.04,133.95z"/>
<linearGradient id="SVGID_6_" gradientUnits="userSpaceOnUse" x1="392.0991" y1="130.042" x2="388.6576" y2="154.5297">
	<stop  offset="0.2089" style="stop-color:#94B03C"/>
	<stop  offset="0.3952" style="stop-color:#89A438"/>
	<stop  offset="0.7903" style="stop-color:#6D832C"/>
	<stop  offset="0.8608" style="stop-color:#677C2A"/>
</linearGradient>
<path class="st7" d="M396.08,130.6l-0.01,24.97c-0.02-0.01-0.03-0.01-0.05-0.02c-3.64-1.47-7.59-3.39-11.57-5.89l0.01-19.06H396.08z
	"/>
<linearGradient id="SVGID_7_" gradientUnits="userSpaceOnUse" x1="391.7683" y1="156.69" x2="388.5282" y2="179.7446">
	<stop  offset="0.3021" style="stop-color:#677C2A"/>
	<stop  offset="0.7527" style="stop-color:#94B03C"/>
</linearGradient>
<path class="st8" d="M396.08,159.57l-0.01,19.6h-11.62v-23.51c3.58,1.57,7.43,2.9,11.57,3.9
	C396.04,159.56,396.06,159.57,396.08,159.57z"/>
<linearGradient id="SVGID_8_" gradientUnits="userSpaceOnUse" x1="235.7379" y1="163.3049" x2="339.2608" y2="163.3049">
	<stop  offset="0.0736" style="stop-color:#94B03C"/>
	<stop  offset="0.154" style="stop-color:#89A438"/>
	<stop  offset="0.3231" style="stop-color:#6D832C"/>
	<stop  offset="0.6508" style="stop-color:#6D832C"/>
	<stop  offset="1" style="stop-color:#94B03C"/>
</linearGradient>
<path class="st9" d="M339.26,134.54c0,0-15.86-7.62-41.56-6.54c0,0-26.91,22.46-57.92,34.69c0,0-6.34,15.35-3.14,36.02l11.28-13.47
	c0,0-0.68-17.35,18.47-32.06C266.39,153.18,292.21,131.24,339.26,134.54z"/>
<path class="st2" d="M593.13,271.96v-83.81l-20.74,4.87v10.65c0,0-4.36-8.45-11.56-12.48c-3.54-1.98-7.04-3.04-10.56-3.04
	c-12.19,0-25.76,7.22-25.76,32.29c0,12.66,3.27,21.9,8.42,26.83c5.15,4.69,10.8,6.71,17.34,6.71c3.52,0,7.06-0.97,10.56-3.04
	c6.57-3.88,11.56-10.58,11.56-10.58v44l30.03-4.93v-0.76C595.52,278.67,593.13,276.64,593.13,271.96z M572.39,239.36
	c0,0-7.56,8.04-14.33,8.04c-8.16,0-12.18-8.98-12.18-26.96c0-22.92,5.78-25.83,12.18-25.83c9,0,14.33,10.63,14.33,10.63V239.36z"/>
<path class="st2" d="M516.25,230.3V254h-73.79v-0.76c6.36,0,9.55-2.18,9.55-6.53v-78.49c0-4.49-3.19-6.67-9.55-6.67v-0.77h71.12
	v23.71h-1.02c-2.67-8.08-6.36-13.84-11.06-17.05c-4.6-3.26-11.52-5.16-20.84-5.84h-7.03v44.9c0,0,24.8,1.38,30.16-11.67h1.02v23.84
	h-1.02c-6.15-12.62-30.16-11.41-30.16-11.41v45.93h7.2c9.38-0.7,16.48-2.73,21.55-5.83c5.22-3.34,9.42-8.98,12.86-17.05H516.25z"/>
<path class="st2" d="M680.75,243.81c-2.02,3.81-4.03,5.71-6.05,5.71c-2.27,0-3.4-1.78-3.4-5.2v-56.2l-29.72,4.95v0.76
	c6.55,0,8.94,2.03,8.94,6.72v37.84c0,0-6.12,8.59-12.47,8.59c-6.17,0-8.69-3.55-8.69-10.78v-48.08l-30.1,4.95v0.76
	c6.93,0,9.32,2.03,9.32,6.72v35.65c0,11.92,6.17,17.89,18.64,17.89c14.11,0,23.3-14.84,23.3-14.84v2.41
	c0,7.48,5.16,12.43,13.85,12.43c8.57,0,15.12-3.55,17.13-10.28H680.75z"/>
<path class="st2" d="M711.27,246.65v-58.59l-30.62,5.03v0.77c7.05,0,9.48,2.06,9.48,6.84v45.94c0,4.39-3.2,6.58-9.61,6.58V254h40.35
	v-0.77C714.47,253.23,711.27,251.03,711.27,246.65z"/>
<path class="st2" d="M838.11,188.15v0.86c-4.2,0-5.9,1.45-8.54,6.21l-20.3,38.36l-10.96,20.8l-8.68,16.41
	c-1.04,1.98-3.14,5.82-4.33,7.4c-1.05,1.73-3.01,4.64-4.46,5.7c-2.37,1.98-5,3.57-8.02,3.57c-7.23,0-11.56-4.9-11.56-11.78
	c0-5.68,4.33-10.45,11.56-12.44c-0.38,1.07-0.52,2.12-0.52,3.31c-0.13,5.16,2.88,8.86,7.75,8.86c5.79,0,13.95-15.03,17.22-21.53
	l-30.23-60.24c-1.15-2.43-2.96-3.19-5.31-3.41h-13.2v46.43c0,7.02,2.38,12.81,7.88,12.81c3.6,0,7.6-2.14,11.85-6.41v0.75
	c-4.12,6.03-12.23,10.19-21.34,10.19c-9.98,0-17.02-4.02-18.99-12.49c-0.04-0.17-0.07-0.35-0.11-0.54
	c-0.44-2.66-0.28-6.71-0.28-6.71V190.2h-6.41l0.1-0.13l1.36-1.89h4.95v-8.61l20.99-4.44v13.02h48.07v0.86
	c-4.61,0-6.44,3.17-4.21,7.8l16.54,34.69l6.2-11.52c2.49-4.64,3.67-10.33,3.67-17.08c0-7.95-4.6-13.89-13.4-13.89v-0.86H838.11z"/>
<path class="st2" d="M938.95,250.35c-4.2,0-7-6.3-8.39-18.9c-0.64-6.57-2.04-10.41-5.73-14.79c-3.69-4.38-11.07-6.85-22.26-7.4
	c18.83-1.23,29.13-10.27,29.13-25.06c0-16.77-11.99-23.36-38.2-23.42v-0.01h-6.71h-5.64h-25.52v0.77c6.36,0,9.54,2.18,9.54,6.41
	v78.74c0,4.35-3.18,6.53-9.54,6.53V254h40.83v-0.77c-6.49,0-9.67-2.18-9.67-6.53v-85.1h6.4c11.67,0.02,16.88,7.27,16.88,22.6
	c0,14.65-5.73,24.66-16.92,24.66v0.82c5.47,0.96,8.78,3.15,10.43,7.53c1.66,4.38,2.04,7.26,2.55,14.25
	c1.02,15.89,8.01,23.83,21.11,23.83c9.67,0,16.79-3.84,18.83-11.09h-0.76C943.27,248.3,941.11,250.35,938.95,250.35z"/>
<path class="st2" d="M1046.18,253.23V254h-39.66v-0.78c0,0,0.43,0.01,0.89,0c0.12-0.01,0.25,0,0.37-0.01h0.08
	c5.39-0.3,8.1-2.45,8.1-6.44V173.2c0-4.69-2.39-6.73-9.32-6.73v-0.76l30.09-4.95v86.01c0,4.02,2.74,6.17,8.2,6.44
	C1045.26,253.23,1046.18,253.23,1046.18,253.23z"/>
<path class="st2" d="M1216.09,211.24c-8.05-3.67-14.71-8.35-14.71-13.8c0-8.77,11.94-8.52,11.94-8.52s12.45-0.1,12.45,8.14
	c0.12,3.16-2.01,5.82-5.65,5.95c1.75,4.06,5.27,6.08,10.67,6.08c5.91,0,9.31-3.67,9.31-7.85c0-12.69-26.85-13.07-26.85-13.07
	s-27.34-1.16-27.34,18.51c0,11.14,15.09,18.24,26.66,23.95c8.05,3.92,14.58,8.6,14.58,13.29c0,9.79-13.78,9.31-13.78,9.31
	s-14.13-0.53-14.13-9.19c0-3.67,2.89-6.2,7.04-6.33c-2.14-3.67-5.91-5.56-11.06-5.56c-2.01,0-3.88,0.44-5.49,1.23
	c-0.08,0.03-0.15,0.07-0.22,0.11h-0.01c-1,0.5-1.79,1.06-2.44,1.71c-0.09,0.09-0.18,0.19-0.27,0.29c-0.05,0.05-0.1,0.11-0.15,0.17
	c-0.04,0.04-0.07,0.09-0.1,0.13c-2.37,2.72-2.74,6.37-5.06,9.91c-1.62,2.48-3.28,3.03-4.56,2.96c-0.03,0-0.07-0.01-0.11-0.01
	c-0.15-0.01-0.3-0.03-0.43-0.06c-0.08-0.01-0.16-0.02-0.23-0.05c-0.07-0.02-0.14-0.04-0.22-0.06c-0.07-0.02-0.14-0.04-0.2-0.07
	c-0.07-0.02-0.13-0.05-0.18-0.08c-0.06-0.03-0.11-0.05-0.17-0.08c-0.58-0.34-0.89-0.82-1.05-1.16c-0.03-0.09-0.07-0.15-0.09-0.24
	c-0.02-0.06-0.03-0.11-0.04-0.15c-0.02-0.05-0.02-0.08-0.02-0.08c-0.16-0.68-0.24-1.47-0.24-2.38v-30.79
	c0-25.91-31.57-25.34-31.57-25.34s-25.53-0.68-25.53,13.8c0,5.58,4.27,10.02,10.94,10.02c5.03,0,10.18-2.54,12.08-6.09
	c-5.04-0.37-8.19-3.16-8.19-7.72c0-9.89,10.68-9.25,10.68-9.25s10.96-0.1,10.96,12.04v19.63h-17.36c-14.46,0-24.02,6.46-24.15,17.24
	c-0.12,10.01,6.79,16.21,17.74,16.21c13,0,23.77-14.32,23.77-14.32c0,10.53,4.41,14.32,14.59,14.32c7.93,0,14.34-3.54,16.36-10.26
	c0.15-0.43,0.26-0.82,0.34-1.15c0,0,0-0.01,0-0.04c0.15,1.13,0.54,2.15,1.12,3.06c5.41,8.54,27.58,8.39,27.58,8.39
	c0.43,0,29.2-0.08,29.2-19.32C1242.5,223.03,1227.65,216.44,1216.09,211.24z M1153.31,238.62c0,0-6.89,8.79-12.95,8.79
	c-5.28,0-7.93-4.05-7.93-12.3c0-8.23,4.66-13.8,13.33-13.8h7.55V238.62z"/>
<path class="st2" d="M1187.06,235.2c-0.09,0.09-0.18,0.19-0.27,0.29c0.01-0.02,0.03-0.04,0.05-0.06c0.01-0.01,0.01-0.02,0.02-0.03
	c0.06-0.07,0.13-0.14,0.19-0.2H1187.06z"/>
<polygon class="st2" points="727.54,188.15 727.54,188.18 722.6,188.18 722.62,188.15 "/>
<path class="st2" d="M1306.71,216.44c0.37-2.14,0.63-4.28,0.63-6.55c0-5.42-2.16-10.31-6.51-14.74c-7.32-7.45-20.69-7-20.69-7
	s-14.92,0.25-23.72,9.26c-5.89,6.04-9.26,13.6-9.26,23.56c0,10.07,3.26,18.14,9.63,24.06c6.38,5.93,13.88,8.96,22.51,8.96
	c4.63,0,9.51-0.89,14.51-2.78c5.01-1.89,9.01-4.66,12-8.57v-0.76c-5.63,4.42-11.62,6.68-18.25,6.68
	c-11.51,0-19.14-10.45-19.14-28.08c0-1.4,0.01-2.74,0.02-4.04H1306.71z M1270.31,196.16c1.04-4.65,4.46-6.25,7-6.79
	c0.01,0,0.03-0.01,0.05-0.01c0.09-0.02,0.22-0.05,0.4-0.07c0.01-0.01,0.03-0.01,0.05-0.01c0.08-0.01,0.16-0.03,0.26-0.04
	c0.03,0,0.06-0.01,0.09-0.01c1-0.12,2.74-0.21,4.73,0.23c0.03,0.01,0.06,0.01,0.09,0.02c3.17,0.82,7.98,3.48,7.98,12.09
	c0,10.04-4.22,13.77-14.42,14.05h-8.05C1268.63,206.29,1269.5,199.8,1270.31,196.16z"/>
<path class="st2" d="M1105.71,216.44c0.37-2.14,0.63-4.28,0.63-6.55c0-5.42-2.16-10.31-6.51-14.74c-7.32-7.45-20.69-7-20.69-7
	s-14.92,0.25-23.72,9.26c-5.89,6.04-9.26,13.6-9.26,23.56c0,10.07,3.26,18.14,9.63,24.06c6.38,5.93,13.88,8.96,22.51,8.96
	c4.63,0,9.51-0.89,14.51-2.78c5.01-1.89,9.01-4.66,12-8.57v-0.76c-5.63,4.42-11.62,6.68-18.25,6.68
	c-11.51,0-19.14-10.45-19.14-28.08c0-1.4,0.01-2.74,0.02-4.04H1105.71z M1069.31,196.16c1.04-4.65,4.46-6.25,7-6.79
	c0.01,0,0.03-0.01,0.05-0.01c0.09-0.02,0.22-0.05,0.4-0.07c0.01-0.01,0.03-0.01,0.05-0.01c0.08-0.01,0.16-0.03,0.26-0.04
	c0.03,0,0.06-0.01,0.09-0.01c1-0.12,2.74-0.21,4.73,0.23c0.03,0.01,0.06,0.01,0.09,0.02c3.17,0.82,7.98,3.48,7.98,12.09
	c0,10.04-4.22,13.77-14.42,14.05h-8.05C1067.63,206.29,1068.5,199.8,1069.31,196.16z"/>
<path class="st2" d="M1005.71,216.44c0.37-2.14,0.63-4.28,0.63-6.55c0-5.42-2.16-10.31-6.51-14.74c-7.32-7.45-20.69-7-20.69-7
	s-14.92,0.25-23.72,9.26c-5.89,6.04-9.25,13.6-9.25,23.56c0,10.07,3.26,18.14,9.63,24.06c6.38,5.93,13.88,8.96,22.51,8.96
	c4.63,0,9.51-0.89,14.51-2.78c5.01-1.89,9.01-4.66,12-8.57v-0.76c-5.63,4.42-11.62,6.68-18.25,6.68
	c-11.51,0-19.14-10.45-19.14-28.08c0-1.4,0.01-2.74,0.02-4.04H1005.71z M969.31,196.16c1.04-4.65,4.46-6.25,7-6.79
	c0.01,0,0.03-0.01,0.05-0.01c0.09-0.02,0.22-0.05,0.4-0.07c0.01-0.01,0.03-0.01,0.05-0.01c0.08-0.01,0.16-0.03,0.26-0.04
	c0.03,0,0.06-0.01,0.09-0.01c1-0.12,2.74-0.21,4.73,0.23c0.03,0.01,0.06,0.01,0.09,0.02c3.17,0.82,7.98,3.48,7.98,12.09
	c0,10.04-4.22,13.77-14.42,14.05h-8.05C967.63,206.29,968.5,199.8,969.31,196.16z"/>
</svg>
