<svg xmlns="http://www.w3.org/2000/svg" viewBox="0 0 177.5 178.67">    <defs>        <style>            .cls-1{fill:url(#linear-gradient)}.cls-2{clip-path:url(#clip-path)}.cls-3{clip-path:url(#clip-path-2)}.cls-4{clip-path:url(#clip-path-3)}.cls-5{clip-path:url(#clip-path-4)}.cls-6{clip-path:url(#clip-path-5)}.cls-7{clip-path:url(#clip-path-6)}        </style>        <linearGradient id="linear-gradient" x1=".169" x2=".824" y1=".563" y2=".572" gradientUnits="objectBoundingBox">            <stop offset="0" stop-color="#eb008b"/>            <stop offset="1" stop-color="#682262"/>        </linearGradient>        <clipPath id="clip-path">            <path id="Path_163" d="M117.107 188.882a12.757 12.757 0 0 0 12.288-9.363h63.783v1.951a12.861 12.861 0 0 1-12.878 12.873H42.4a12.861 12.861 0 0 1-12.873-12.873v-1.951h63.588a12.757 12.757 0 0 0 12.288 9.363zm10.338-86.214l.585-4.486 1.756-13.264 2.926 2.926a26.272 26.272 0 0 1 7.8 18.725v7.8zm-45.058 3.9a25.943 25.943 0 0 1 7.8-18.725l3.313-3.12 1.951 17.945-12.874 11.7v-7.8zm20.286-.2l-2.731-26.522-.39-2.926-.78-7.412A50.893 50.893 0 0 1 111.255 30.5l.39-.39a50.664 50.664 0 0 1 12.679 40.571l-.78 6.437-3.316 26.723-.39 2.926a42.881 42.881 0 0 1-8.582.975h-.2a68.085 68.085 0 0 1-8.387-1.365M111.84 22.5a6.35 6.35 0 0 0-4.486 1.951l-1.17 1.365a58.168 58.168 0 0 0-14.239 42.717H49.032a14.319 14.319 0 0 0-14.239 14.239V172.5h-8.582a3.5 3.5 0 0 0-3.511 3.511v5.462a19.646 19.646 0 0 0 19.7 19.7h138.1a19.771 19.771 0 0 0 19.7-19.7v-5.462a3.5 3.5 0 0 0-3.511-3.511h-70.22a3.5 3.5 0 0 0-3.511 3.511 5.868 5.868 0 0 1-5.852 5.852H105.4a5.868 5.868 0 0 1-5.852-5.852 3.5 3.5 0 0 0-3.511-3.511H41.425V82.772a7.2 7.2 0 0 1 7.217-7.217h43.5v.39l-7.217 6.827a33.167 33.167 0 0 0-9.753 23.8v15.6a3.343 3.343 0 0 0 2.146 3.121 3.009 3.009 0 0 0 3.706-.585l15.212-13.848a3.1 3.1 0 0 0 1.951 1.56 46.267 46.267 0 0 0 12.679 1.755h.2a48.74 48.74 0 0 0 12.874-1.755 3.163 3.163 0 0 0 2.146-1.756l15.409 13.849a3.009 3.009 0 0 0 3.706.585 3.663 3.663 0 0 0 2.146-3.121v-15.6a33.987 33.987 0 0 0-9.753-23.8l-6.834-6.437v-.585h42.912a7.2 7.2 0 0 1 7.217 7.217v63.978a3.511 3.511 0 0 0 7.022 0V82.967a14.319 14.319 0 0 0-14.239-14.239h-41.936a58.3 58.3 0 0 0-14.824-43.5l-.585-.585a6.143 6.143 0 0 0-4.487-2.143z" class="cls-1" data-name="Path 163" transform="translate(-22.7 -22.5)"/>        </clipPath>        <clipPath id="clip-path-2">            <path id="Path_165" d="M139.494 53.7a3.511 3.511 0 0 0 0 7.022h14.044v67.684H43.722V60.722H54.84a3.511 3.511 0 1 0 0-7.022H40.211a3.5 3.5 0 0 0-3.511 3.511v74.706a3.5 3.5 0 0 0 3.511 3.511h116.838a3.5 3.5 0 0 0 3.511-3.511V57.211a3.5 3.5 0 0 0-3.511-3.511z" class="cls-1" data-name="Path 165" transform="translate(-36.7 -53.7)"/>        </clipPath>        <clipPath id="clip-path-3">            <path id="Path_167" d="M66.4 43.111a3.511 3.511 0 1 0 3.511-3.511 3.5 3.5 0 0 0-3.511 3.511" class="cls-1" data-name="Path 167" transform="translate(-66.4 -39.6)"/>        </clipPath>        <clipPath id="clip-path-4">            <path id="Path_169" d="M103.9 95.811a3.511 3.511 0 1 0 3.511-3.511 3.5 3.5 0 0 0-3.511 3.511" class="cls-1" data-name="Path 169" transform="translate(-103.9 -92.3)"/>        </clipPath>        <clipPath id="clip-path-5">            <path id="Path_171" d="M61.7 75.711V89.95a3.511 3.511 0 1 0 7.022 0V75.711a3.511 3.511 0 0 0-7.022 0" class="cls-1" data-name="Path 171" transform="translate(-61.7 -72.2)"/>        </clipPath>        <clipPath id="clip-path-6">            <path id="Path_173" d="M70.8 75.311v21.066a3.511 3.511 0 0 0 7.022 0V75.311a3.511 3.511 0 1 0-7.022 0" class="cls-1" data-name="Path 173" transform="translate(-70.8 -71.8)"/>        </clipPath>    </defs>    <g id="Rocket_icon" data-name="Rocket icon" transform="translate(-835.5 -493)">        <g id="Group_186" data-name="Group 186" transform="translate(835.5 493)">            <g id="Group_185" class="cls-2" data-name="Group 185">                <path id="Path_162" d="M0 55.591L210.269 0l55.786 211.049L55.786 266.64z" class="cls-1" data-name="Path 162" transform="translate(-44.277 -43.887)"/>            </g>        </g>        <g id="Group_188" data-name="Group 188" transform="translate(862.808 553.857)">            <g id="Group_187" class="cls-3" data-name="Group 187">                <path id="Path_164" d="M26.4 73.89L162.353 38l28.283 107.085-135.953 35.89z" class="cls-1" data-name="Path 164" transform="translate(-46.491 -68.624)"/>            </g>        </g>        <g id="Group_190" data-name="Group 190" transform="translate(920.739 526.354)">            <g id="Group_189" class="cls-4" data-name="Group 189">                <path id="Path_166" d="M65.5 40.846l8.192-2.146 2.341 8.387-8.387 2.146z" class="cls-1" data-name="Path 166" transform="translate(-67.256 -40.456)"/>            </g>        </g>        <g id="Group_192" data-name="Group 192" transform="translate(993.885 629.148)">            <g id="Group_191" class="cls-5" data-name="Group 191">                <path id="Path_168" d="M103 93.741l8.387-2.341 2.146 8.387-8.192 2.146z" class="cls-1" data-name="Path 168" transform="translate(-104.756 -93.155)"/>            </g>        </g>        <g id="Group_194" data-name="Group 194" transform="translate(911.572 589.942)">            <g id="Group_193" class="cls-6" data-name="Group 193">                <path id="Path_170" d="M59 74.421L70.9 71.3l5.657 21.651-11.7 3.121z" class="cls-1" data-name="Path 170" transform="translate(-64.266 -73.055)"/>            </g>        </g>        <g id="Group_196" data-name="Group 196" transform="translate(929.322 589.162)">            <g id="Group_195" class="cls-7" data-name="Group 195">                <path id="Path_172" d="M67.3 74.411L80.759 70.9l7.412 27.893-13.459 3.507z" class="cls-1" data-name="Path 172" transform="translate(-74.127 -72.655)"/>            </g>        </g>    </g></svg>